<?xml version="1.0" standalone="no"?>
<!DOCTYPE svg PUBLIC "-//W3C//DTD SVG 20010904//EN"
 "http://www.w3.org/TR/2001/REC-SVG-20010904/DTD/svg10.dtd">
<svg version="1.0" xmlns="http://www.w3.org/2000/svg"
 width="1690.000000pt" height="147.000000pt" viewBox="0 0 1690.000000 147.000000"
 preserveAspectRatio="xMidYMid meet">

<g transform="translate(0.000000,147.000000) scale(0.100000,-0.100000)"
fill="#000000" stroke="none">
<path d="M210 795 l0 -535 223 2 222 3 3 533 2 532 -225 0 -225 0 0 -535z"/>
<path d="M1664 1005 c-12 -18 -14 -31 -7 -52 8 -23 16 -29 47 -31 45 -4 66 11
66 49 0 58 -74 83 -106 34z"/>
<path d="M2364 1004 c-27 -41 -9 -78 39 -82 46 -4 67 11 67 49 0 59 -74 83
-106 33z"/>
<path d="M4036 1014 c-19 -18 -21 -65 -4 -82 20 -20 86 -15 98 7 25 47 0 91
-50 91 -16 0 -36 -7 -44 -16z"/>
<path d="M10150 735 l0 -295 50 0 50 0 0 295 0 295 -50 0 -50 0 0 -295z"/>
<path d="M10790 919 l0 -110 -23 27 c-18 20 -35 28 -73 31 -62 5 -104 -19
-136 -79 -19 -36 -23 -58 -23 -138 1 -79 5 -102 23 -138 31 -59 91 -87 154
-73 24 6 51 20 61 32 15 19 20 20 28 8 5 -7 9 -20 9 -27 0 -9 13 -12 43 -10
l42 3 3 293 2 292 -55 0 -55 0 0 -111z m-52 -145 c35 -10 52 -54 52 -132 0
-77 -15 -106 -61 -117 -19 -5 -34 0 -55 18 -28 24 -29 29 -29 107 0 77 2 83
28 106 31 26 32 27 65 18z"/>
<path d="M14691 988 c-19 -7 -54 -30 -77 -52 -51 -50 -74 -118 -74 -221 0
-185 82 -278 245 -278 84 0 132 19 179 74 43 51 57 101 57 207 0 185 -70 272
-225 278 -39 2 -86 -2 -105 -8z m170 -115 c76 -70 63 -285 -20 -327 -63 -33
-131 -14 -162 46 -41 81 -31 236 20 282 45 41 118 41 162 -1z"/>
<path d="M970 715 l0 -275 51 0 50 0 -3 210 c-2 116 -1 210 2 210 3 0 32 -93
65 -208 l60 -207 51 -3 51 -3 61 199 c34 109 62 204 62 210 0 6 3 13 8 15 4 3
6 -91 4 -209 l-3 -214 50 0 51 0 0 275 0 275 -75 0 -74 0 -35 -112 c-19 -62
-47 -155 -63 -205 -24 -82 -43 -117 -43 -80 0 6 -26 99 -57 205 l-57 192 -78
0 -78 0 0 -275z"/>
<path d="M4900 714 l0 -277 124 5 c101 4 132 9 170 27 87 43 136 133 136 251
0 119 -47 206 -134 246 -45 21 -66 24 -173 24 l-123 0 0 -276z m240 168 c52
-26 74 -73 74 -157 0 -122 -53 -185 -156 -185 l-48 0 0 173 c0 96 3 177 7 180
13 13 89 7 123 -11z"/>
<path d="M11630 733 c0 -142 -5 -276 -10 -298 -11 -49 -35 -68 -78 -61 l-33 5
3 -47 3 -47 52 -3 c103 -6 160 49 163 158 1 30 1 166 1 303 l-1 247 -50 0 -50
0 0 -257z"/>
<path d="M2994 925 c-7 -19 -14 -38 -14 -43 0 -6 -16 -22 -35 -36 -43 -33 -46
-63 -7 -68 l27 -3 5 -141 c4 -121 8 -145 24 -163 23 -26 85 -44 123 -36 15 4
38 8 51 11 18 4 22 11 22 45 l0 40 -43 -6 c-65 -10 -72 4 -72 139 l0 111 53 3
52 3 0 40 0 39 -55 0 -55 0 0 50 c0 49 -1 50 -31 50 -25 0 -32 -6 -45 -35z"/>
<path d="M7115 910 c-12 -36 -25 -55 -46 -65 -39 -21 -42 -65 -4 -65 l25 0 0
-127 c0 -102 4 -135 18 -163 20 -42 68 -62 127 -54 72 10 75 12 75 56 l0 40
-35 -6 c-19 -4 -44 -2 -55 4 -18 10 -20 21 -20 130 l0 120 53 0 52 0 1 40 1
40 -53 0 -53 0 -3 48 c-3 45 -5 47 -35 50 -29 3 -32 0 -48 -48z"/>
<path d="M9450 935 c-5 -14 -12 -36 -16 -49 -3 -12 -18 -30 -35 -40 -38 -23
-41 -66 -4 -66 l25 0 0 -127 c0 -102 4 -135 18 -163 21 -43 68 -62 131 -54 66
9 71 12 71 56 0 39 0 39 -34 33 -19 -4 -43 -2 -55 4 -20 11 -21 20 -21 131 l0
120 50 0 50 0 0 40 0 40 -49 0 -50 0 -3 48 c-3 45 -4 47 -36 50 -27 3 -34 -1
-42 -23z"/>
<path d="M2045 856 c-17 -7 -36 -20 -44 -29 -16 -20 -31 -13 -31 14 0 16 -7
19 -45 19 l-45 0 0 -210 0 -210 55 0 55 0 0 128 c0 101 4 134 18 162 19 40 63
61 90 44 34 -22 42 -56 42 -196 l0 -138 49 0 48 0 7 110 c8 124 0 222 -21 263
-25 50 -113 71 -178 43z"/>
<path d="M2641 857 c-49 -17 -76 -58 -75 -113 1 -57 28 -87 111 -125 67 -30
93 -60 72 -85 -15 -18 -82 -18 -134 1 -53 20 -55 19 -55 -12 1 -75 19 -86 141
-85 109 0 160 40 161 126 1 64 -21 91 -110 134 -84 40 -100 64 -57 84 21 9 36
8 78 -5 56 -18 59 -17 75 30 l11 33 -51 15 c-61 18 -120 18 -167 2z"/>
<path d="M3360 859 c-38 -15 -88 -69 -101 -108 -7 -19 -12 -65 -13 -101 -1
-136 72 -213 202 -213 37 -1 84 5 105 12 35 12 37 15 37 57 0 24 -2 44 -4 44
-2 0 -20 -7 -39 -15 -50 -21 -129 -19 -156 3 -24 19 -45 79 -30 87 5 4 62 5
126 4 l118 -1 -1 58 c-1 82 -32 139 -87 165 -45 20 -117 24 -157 8z m120 -89
c11 -11 20 -24 20 -29 0 -5 3 -16 6 -25 5 -14 -5 -16 -70 -16 -70 0 -76 2 -76
20 0 29 44 70 75 70 14 0 34 -9 45 -20z"/>
<path d="M3860 855 c-14 -7 -32 -25 -40 -39 -16 -31 -30 -34 -30 -7 0 40 -11
51 -51 51 l-39 0 0 -210 0 -210 55 0 55 0 0 131 0 131 29 29 c23 23 39 29 70
29 l41 0 0 55 0 55 -32 0 c-18 -1 -44 -7 -58 -15z"/>
<path d="M4335 851 c-73 -33 -105 -93 -105 -196 0 -138 70 -218 190 -218 119
0 190 81 190 215 -1 166 -136 263 -275 199z m136 -97 c21 -23 24 -35 24 -106
0 -75 -2 -81 -28 -104 -37 -32 -62 -30 -99 6 -29 30 -30 33 -26 111 3 70 6 83
27 100 33 27 73 24 102 -7z"/>
<path d="M5526 860 c-73 -22 -115 -99 -116 -209 0 -143 65 -214 198 -214 37
-1 84 5 105 12 35 12 37 15 37 56 l0 44 -41 -14 c-50 -18 -128 -19 -150 -2
-21 16 -39 51 -39 77 0 21 4 22 78 20 42 -1 98 -2 125 -1 l47 1 0 53 c0 135
-112 216 -244 177z m114 -90 c11 -11 20 -24 20 -29 0 -5 3 -16 6 -25 5 -14 -5
-16 -70 -16 -70 0 -76 2 -76 20 0 29 44 70 75 70 14 0 34 -9 45 -20z"/>
<path d="M6025 859 c-11 -6 -30 -20 -41 -31 -21 -19 -22 -19 -28 6 -6 23 -11
26 -51 26 l-45 0 0 -300 0 -300 56 0 55 0 -3 110 c-2 61 -2 110 0 110 2 0 16
-10 32 -22 35 -26 103 -28 149 -4 53 28 76 86 76 196 0 106 -18 158 -66 193
-32 23 -106 32 -134 16z m64 -103 c32 -34 40 -136 14 -186 -15 -29 -24 -36
-54 -38 -58 -5 -74 22 -74 125 0 77 2 87 24 104 32 26 63 24 90 -5z"/>
<path d="M6425 865 c-108 -32 -104 -28 -80 -75 18 -35 12 -34 66 -14 74 26
129 3 129 -54 0 -17 -9 -20 -78 -24 -124 -7 -165 -41 -164 -136 0 -67 23 -102
78 -120 50 -17 106 -7 144 25 l30 25 10 -27 c9 -23 15 -26 47 -23 l38 3 0 160
c0 181 -10 215 -75 247 -31 16 -113 23 -145 13z m115 -259 c0 -47 -33 -86 -74
-86 -39 0 -56 15 -56 49 0 37 13 52 51 61 69 16 79 13 79 -24z"/>
<path d="M6923 860 c-12 -5 -29 -20 -39 -34 -21 -34 -31 -33 -39 4 -6 27 -10
30 -46 30 l-39 0 0 -211 0 -210 53 3 52 3 0 100 c0 186 8 205 91 214 l49 6 3
53 3 52 -33 -1 c-18 0 -43 -4 -55 -9z"/>
<path d="M7460 858 c-53 -15 -64 -29 -48 -64 6 -16 13 -30 14 -32 1 -2 27 4
58 13 64 19 90 14 112 -21 26 -39 12 -54 -48 -54 -140 0 -203 -63 -178 -176 5
-22 21 -49 35 -61 47 -41 176 -26 203 23 7 13 11 10 22 -15 10 -26 18 -31 46
-31 l34 0 0 169 c0 158 -1 170 -23 202 -13 19 -38 39 -57 46 -42 14 -122 15
-170 1z m148 -255 c4 -45 -34 -83 -83 -83 -27 0 -38 5 -46 23 -23 52 28 99
101 94 20 -2 26 -8 28 -34z"/>
<path d="M7990 863 c-8 -3 -27 -17 -42 -31 l-27 -25 -10 26 c-9 23 -16 27 -51
27 l-40 0 0 -133 c0 -74 3 -168 6 -210 l7 -77 48 0 49 0 0 129 c0 70 5 142 11
160 18 53 71 68 105 30 17 -18 19 -40 21 -168 l3 -146 49 -3 50 -3 3 146 c3
147 3 147 31 171 35 30 58 30 83 3 17 -18 19 -40 22 -170 l3 -149 50 0 49 0 0
170 c0 193 -8 222 -65 246 -62 26 -112 17 -163 -30 -22 -20 -24 -20 -34 -3
-19 35 -109 58 -158 40z"/>
<path d="M8604 851 c-69 -31 -104 -102 -104 -209 0 -86 38 -155 105 -189 37
-19 146 -22 198 -4 35 12 37 15 37 57 0 24 -2 44 -4 44 -2 0 -20 -7 -39 -15
-37 -15 -112 -20 -142 -9 -19 8 -45 55 -45 84 0 19 6 20 126 20 l127 0 -6 60
c-7 83 -33 130 -87 158 -54 27 -111 28 -166 3z m124 -78 c11 -10 23 -30 26
-45 l6 -28 -75 0 c-69 0 -75 2 -75 20 0 29 44 70 73 70 14 0 34 -8 45 -17z"/>
<path d="M9110 859 c-14 -6 -35 -20 -47 -31 l-22 -21 -7 27 c-5 22 -11 26 -45
26 l-39 0 0 -210 0 -210 50 0 50 0 0 125 c0 141 12 187 55 207 22 10 32 9 53
-3 35 -19 40 -42 41 -196 l1 -133 50 0 50 0 0 166 c0 130 -3 173 -16 199 -26
55 -108 80 -174 54z"/>
<path d="M9778 854 c-54 -16 -53 -15 -36 -61 10 -28 16 -33 33 -28 81 26 104
28 129 11 18 -11 26 -25 26 -45 0 -28 0 -28 -74 -33 -93 -6 -141 -32 -157 -88
-23 -77 12 -151 82 -170 47 -13 107 0 134 30 24 26 32 25 39 -5 6 -22 12 -25
47 -25 l41 0 -4 173 c-2 146 -6 176 -21 199 -37 54 -141 72 -239 42z m152
-250 c0 -47 -13 -70 -49 -82 -59 -21 -101 31 -67 83 12 18 27 25 58 28 24 2
46 4 51 5 4 1 7 -14 7 -34z"/>
<path d="M11080 848 c-65 -34 -95 -97 -94 -198 0 -78 15 -122 57 -168 31 -33
116 -55 180 -47 89 13 97 18 97 69 l0 45 -35 -15 c-41 -17 -118 -19 -147 -3
-24 13 -53 78 -40 91 5 5 62 8 126 6 l116 -3 0 55 c0 64 -30 133 -71 163 -16
11 -50 21 -85 24 -48 4 -67 0 -104 -19z m135 -83 c14 -13 25 -33 25 -45 0 -18
-6 -20 -76 -20 -65 0 -75 2 -70 16 3 9 6 20 6 25 0 18 41 49 65 49 14 0 37
-11 50 -25z"/>
<path d="M11934 851 c-67 -30 -104 -101 -104 -195 0 -138 70 -219 190 -219 89
0 151 44 175 127 60 200 -90 365 -261 287z m132 -94 c23 -20 28 -34 32 -83 8
-108 -45 -177 -108 -142 -35 19 -50 54 -50 121 0 112 59 161 126 104z"/>
<path d="M12770 848 c-31 -16 -52 -36 -68 -66 -51 -93 -35 -241 32 -300 56
-49 164 -62 249 -30 24 9 27 16 27 54 l0 43 -41 -14 c-50 -18 -128 -19 -150
-2 -21 16 -39 51 -39 75 0 18 8 19 126 17 l126 -2 -4 66 c-9 117 -55 169 -156
178 -46 4 -66 0 -102 -19z m135 -83 c14 -13 25 -33 25 -45 0 -18 -6 -20 -75
-20 -80 0 -84 3 -60 50 24 47 72 54 110 15z"/>
<path d="M13272 855 c-18 -8 -35 -21 -38 -30 -9 -22 -21 -18 -28 10 -5 21 -12
25 -46 25 l-40 0 0 -210 0 -210 49 0 49 0 4 138 c3 110 7 144 21 165 32 49 97
44 117 -9 6 -14 10 -86 10 -160 l0 -134 50 0 50 0 0 170 c0 136 -3 177 -16
201 -27 53 -113 74 -182 44z"/>
<path d="M13664 851 c-145 -66 -137 -343 11 -402 37 -14 160 -15 198 0 24 9
27 16 27 55 l0 45 -35 -15 c-19 -7 -58 -14 -88 -14 -43 0 -58 4 -76 24 -12 13
-23 36 -24 52 l-2 29 120 0 120 0 3 55 c7 142 -123 230 -254 171z m124 -78
c12 -10 24 -30 28 -45 l6 -28 -76 0 c-81 0 -85 3 -61 50 22 43 67 53 103 23z"/>
<path d="M14061 857 c-47 -16 -74 -56 -74 -107 0 -56 25 -87 108 -131 76 -41
88 -55 74 -81 -12 -23 -84 -24 -136 -3 -19 8 -37 15 -39 15 -2 0 -4 -20 -4
-45 0 -40 3 -47 28 -56 15 -6 59 -12 97 -12 115 0 165 39 165 131 0 62 -26 92
-113 131 -69 31 -89 57 -61 78 23 16 30 16 90 -2 27 -8 50 -15 50 -15 7 0 25
63 21 73 -12 31 -142 46 -206 24z"/>
<path d="M15293 860 c-12 -5 -32 -23 -44 -39 -24 -33 -39 -27 -39 17 0 19 -5
22 -45 22 l-45 0 0 -210 0 -210 54 0 54 0 4 136 c3 135 3 136 31 160 19 16 40
24 66 24 38 0 39 1 45 45 4 25 4 49 1 55 -7 12 -52 12 -82 0z"/>
<path d="M16068 853 c-15 -9 -32 -27 -39 -40 -15 -28 -29 -20 -29 18 0 28 -2
29 -45 29 l-45 0 0 -210 0 -210 55 0 55 0 0 131 0 131 29 29 c23 23 39 29 70
29 l41 0 0 55 0 55 -32 0 c-18 0 -45 -8 -60 -17z"/>
<path d="M16320 854 c-77 -33 -112 -94 -113 -198 -2 -118 44 -189 140 -215 85
-23 169 11 210 84 31 54 33 187 4 243 -47 92 -146 127 -241 86z m119 -91 c43
-35 50 -168 12 -213 -9 -11 -30 -23 -48 -26 -45 -9 -78 26 -86 91 -12 94 22
165 78 165 13 0 33 -8 44 -17z"/>
<path d="M1660 650 l0 -210 55 0 55 0 0 210 0 210 -55 0 -55 0 0 -210z"/>
<path d="M2360 650 l0 -210 55 0 55 0 0 210 0 210 -55 0 -55 0 0 -210z"/>
<path d="M4022 653 l3 -208 53 -3 52 -3 0 210 0 211 -55 0 -55 0 2 -207z"/>
<path d="M12305 653 l72 -208 58 0 57 0 73 205 72 205 -50 3 c-27 2 -53 0 -58
-5 -9 -10 -89 -268 -89 -291 -1 -9 -16 35 -35 98 -61 207 -53 195 -117 198
l-55 3 72 -208z"/>
<path d="M15448 708 c3 -188 6 -209 36 -237 49 -46 151 -46 197 0 24 24 26 24
33 -6 5 -21 12 -25 46 -25 l40 0 0 210 0 210 -52 0 -53 0 -1 -133 c0 -75 -6
-144 -12 -160 -24 -57 -100 -59 -122 -1 -6 14 -10 86 -10 160 l0 134 -52 0
-53 0 3 -152z"/>
</g>
</svg>
