<svg xmlns="http://www.w3.org/2000/svg" xmlns:xlink="http://www.w3.org/1999/xlink" width="1323" zoomAndPan="magnify" viewBox="0 0 992.25 84.749999" height="113" preserveAspectRatio="xMidYMid meet" version="1.0"><defs><g/><clipPath id="d7a9d1e094"><path d="M 1.03125 0.960938 L 26.71875 0.960938 L 26.71875 72.050781 L 1.03125 72.050781 Z M 1.03125 0.960938 " clip-rule="nonzero"/></clipPath><clipPath id="29a710248d"><path d="M 0.03125 0.960938 L 25.71875 0.960938 L 25.71875 72.050781 L 0.03125 72.050781 Z M 0.03125 0.960938 " clip-rule="nonzero"/></clipPath><clipPath id="f6e7b31644"><rect x="0" width="26" y="0" height="73"/></clipPath><clipPath id="03ce88bad3"><rect x="0" width="941" y="0" height="73"/></clipPath></defs><g transform="matrix(1, 0, 0, 1, 10, 4)"><g clip-path="url(#03ce88bad3)"><g clip-path="url(#d7a9d1e094)"><g transform="matrix(1, 0, 0, 1, 1, 0.000000000000001776)"><g clip-path="url(#f6e7b31644)"><g clip-path="url(#29a710248d)"><path fill="#da002b" d="M 0.03125 0.960938 L 25.71875 0.960938 L 25.71875 72.003906 L 0.03125 72.003906 Z M 0.03125 0.960938 " fill-opacity="1" fill-rule="nonzero"/></g></g></g></g><g fill="#ffffff" fill-opacity="1"><g transform="translate(46.770891, 52.156198)"><g><path d="M 15.953125 0 L 8.96875 -22.796875 L 8.78125 -22.796875 C 9.03125 -18.160156 9.15625 -15.066406 9.15625 -13.515625 L 9.15625 0 L 3.65625 0 L 3.65625 -29.0625 L 12.046875 -29.0625 L 18.921875 -6.84375 L 19.046875 -6.84375 L 26.328125 -29.0625 L 34.71875 -29.0625 L 34.71875 0 L 28.984375 0 L 28.984375 -13.75 C 28.984375 -14.40625 28.988281 -15.15625 29 -16 C 29.019531 -16.84375 29.113281 -19.09375 29.28125 -22.75 L 29.09375 -22.75 L 21.609375 0 Z M 15.953125 0 "/></g></g></g><g fill="#ffffff" fill-opacity="1"><g transform="translate(85.143497, 52.156198)"><g><path d="M 2.921875 -27.96875 C 2.921875 -29.9375 4.019531 -30.921875 6.21875 -30.921875 C 8.414062 -30.921875 9.515625 -29.9375 9.515625 -27.96875 C 9.515625 -27.019531 9.238281 -26.285156 8.6875 -25.765625 C 8.144531 -25.242188 7.320312 -24.984375 6.21875 -24.984375 C 4.019531 -24.984375 2.921875 -25.976562 2.921875 -27.96875 Z M 9.234375 0 L 3.1875 0 L 3.1875 -22.21875 L 9.234375 -22.21875 Z M 9.234375 0 "/></g></g></g><g fill="#ffffff" fill-opacity="1"><g transform="translate(97.563427, 52.156198)"><g><path d="M 23.6875 0 L 17.625 0 L 17.625 -12.984375 C 17.625 -14.585938 17.335938 -15.785156 16.765625 -16.578125 C 16.203125 -17.378906 15.296875 -17.78125 14.046875 -17.78125 C 12.347656 -17.78125 11.117188 -17.210938 10.359375 -16.078125 C 9.609375 -14.953125 9.234375 -13.078125 9.234375 -10.453125 L 9.234375 0 L 3.1875 0 L 3.1875 -22.21875 L 7.8125 -22.21875 L 8.625 -19.375 L 8.96875 -19.375 C 9.644531 -20.445312 10.570312 -21.257812 11.75 -21.8125 C 12.9375 -22.363281 14.285156 -22.640625 15.796875 -22.640625 C 18.378906 -22.640625 20.335938 -21.9375 21.671875 -20.53125 C 23.015625 -19.132812 23.6875 -17.117188 23.6875 -14.484375 Z M 23.6875 0 "/></g></g></g><g fill="#ffffff" fill-opacity="1"><g transform="translate(124.310977, 52.156198)"><g><path d="M 2.921875 -27.96875 C 2.921875 -29.9375 4.019531 -30.921875 6.21875 -30.921875 C 8.414062 -30.921875 9.515625 -29.9375 9.515625 -27.96875 C 9.515625 -27.019531 9.238281 -26.285156 8.6875 -25.765625 C 8.144531 -25.242188 7.320312 -24.984375 6.21875 -24.984375 C 4.019531 -24.984375 2.921875 -25.976562 2.921875 -27.96875 Z M 9.234375 0 L 3.1875 0 L 3.1875 -22.21875 L 9.234375 -22.21875 Z M 9.234375 0 "/></g></g></g><g fill="#ffffff" fill-opacity="1"><g transform="translate(136.730908, 52.156198)"><g><path d="M 18.6875 -6.59375 C 18.6875 -4.320312 17.894531 -2.585938 16.3125 -1.390625 C 14.726562 -0.203125 12.359375 0.390625 9.203125 0.390625 C 7.585938 0.390625 6.207031 0.28125 5.0625 0.0625 C 3.925781 -0.15625 2.863281 -0.472656 1.875 -0.890625 L 1.875 -5.90625 C 3 -5.375 4.265625 -4.925781 5.671875 -4.5625 C 7.085938 -4.207031 8.332031 -4.03125 9.40625 -4.03125 C 11.601562 -4.03125 12.703125 -4.664062 12.703125 -5.9375 C 12.703125 -6.414062 12.554688 -6.800781 12.265625 -7.09375 C 11.972656 -7.394531 11.46875 -7.734375 10.75 -8.109375 C 10.03125 -8.492188 9.078125 -8.9375 7.890625 -9.4375 C 6.179688 -10.15625 4.925781 -10.816406 4.125 -11.421875 C 3.320312 -12.035156 2.738281 -12.734375 2.375 -13.515625 C 2.007812 -14.304688 1.828125 -15.28125 1.828125 -16.4375 C 1.828125 -18.40625 2.59375 -19.929688 4.125 -21.015625 C 5.65625 -22.097656 7.828125 -22.640625 10.640625 -22.640625 C 13.304688 -22.640625 15.90625 -22.054688 18.4375 -20.890625 L 16.609375 -16.515625 C 15.503906 -16.992188 14.46875 -17.382812 13.5 -17.6875 C 12.53125 -17.988281 11.539062 -18.140625 10.53125 -18.140625 C 8.738281 -18.140625 7.84375 -17.65625 7.84375 -16.6875 C 7.84375 -16.144531 8.128906 -15.675781 8.703125 -15.28125 C 9.285156 -14.882812 10.550781 -14.296875 12.5 -13.515625 C 14.238281 -12.816406 15.507812 -12.160156 16.3125 -11.546875 C 17.125 -10.941406 17.722656 -10.238281 18.109375 -9.4375 C 18.492188 -8.644531 18.6875 -7.695312 18.6875 -6.59375 Z M 18.6875 -6.59375 "/></g></g></g><g fill="#ffffff" fill-opacity="1"><g transform="translate(156.960481, 52.156198)"><g><path d="M 12.546875 -4.4375 C 13.597656 -4.4375 14.867188 -4.664062 16.359375 -5.125 L 16.359375 -0.609375 C 14.847656 0.0546875 12.992188 0.390625 10.796875 0.390625 C 8.367188 0.390625 6.597656 -0.21875 5.484375 -1.4375 C 4.378906 -2.664062 3.828125 -4.503906 3.828125 -6.953125 L 3.828125 -17.671875 L 0.9375 -17.671875 L 0.9375 -20.234375 L 4.265625 -22.265625 L 6.015625 -26.953125 L 9.890625 -26.953125 L 9.890625 -22.21875 L 16.125 -22.21875 L 16.125 -17.671875 L 9.890625 -17.671875 L 9.890625 -6.953125 C 9.890625 -6.097656 10.128906 -5.460938 10.609375 -5.046875 C 11.097656 -4.640625 11.742188 -4.4375 12.546875 -4.4375 Z M 12.546875 -4.4375 "/></g></g></g><g fill="#ffffff" fill-opacity="1"><g transform="translate(174.626588, 52.156198)"><g><path d="M 12.375 -18.328125 C 11.09375 -18.328125 10.085938 -17.914062 9.359375 -17.09375 C 8.628906 -16.28125 8.210938 -15.128906 8.109375 -13.640625 L 16.609375 -13.640625 C 16.585938 -15.128906 16.195312 -16.28125 15.4375 -17.09375 C 14.6875 -17.914062 13.664062 -18.328125 12.375 -18.328125 Z M 13.234375 0.390625 C 9.660156 0.390625 6.863281 -0.59375 4.84375 -2.5625 C 2.832031 -4.539062 1.828125 -7.335938 1.828125 -10.953125 C 1.828125 -14.671875 2.753906 -17.546875 4.609375 -19.578125 C 6.472656 -21.617188 9.050781 -22.640625 12.34375 -22.640625 C 15.476562 -22.640625 17.921875 -21.742188 19.671875 -19.953125 C 21.421875 -18.160156 22.296875 -15.691406 22.296875 -12.546875 L 22.296875 -9.59375 L 7.96875 -9.59375 C 8.03125 -7.875 8.539062 -6.53125 9.5 -5.5625 C 10.457031 -4.59375 11.796875 -4.109375 13.515625 -4.109375 C 14.847656 -4.109375 16.109375 -4.25 17.296875 -4.53125 C 18.492188 -4.8125 19.742188 -5.253906 21.046875 -5.859375 L 21.046875 -1.171875 C 19.984375 -0.640625 18.847656 -0.25 17.640625 0 C 16.441406 0.257812 14.972656 0.390625 13.234375 0.390625 Z M 13.234375 0.390625 "/></g></g></g><g fill="#ffffff" fill-opacity="1"><g transform="translate(198.671562, 52.156198)"><g><path d="M 15.578125 -22.640625 C 16.398438 -22.640625 17.082031 -22.578125 17.625 -22.453125 L 17.171875 -16.78125 C 16.679688 -16.90625 16.085938 -16.96875 15.390625 -16.96875 C 13.453125 -16.96875 11.941406 -16.46875 10.859375 -15.46875 C 9.773438 -14.476562 9.234375 -13.09375 9.234375 -11.3125 L 9.234375 0 L 3.1875 0 L 3.1875 -22.21875 L 7.765625 -22.21875 L 8.671875 -18.484375 L 8.96875 -18.484375 C 9.65625 -19.734375 10.582031 -20.738281 11.75 -21.5 C 12.925781 -22.257812 14.203125 -22.640625 15.578125 -22.640625 Z M 15.578125 -22.640625 "/></g></g></g><g fill="#ffffff" fill-opacity="1"><g transform="translate(217.15241, 52.156198)"><g><path d="M 2.921875 -27.96875 C 2.921875 -29.9375 4.019531 -30.921875 6.21875 -30.921875 C 8.414062 -30.921875 9.515625 -29.9375 9.515625 -27.96875 C 9.515625 -27.019531 9.238281 -26.285156 8.6875 -25.765625 C 8.144531 -25.242188 7.320312 -24.984375 6.21875 -24.984375 C 4.019531 -24.984375 2.921875 -25.976562 2.921875 -27.96875 Z M 9.234375 0 L 3.1875 0 L 3.1875 -22.21875 L 9.234375 -22.21875 Z M 9.234375 0 "/></g></g></g><g fill="#ffffff" fill-opacity="1"><g transform="translate(229.572341, 52.156198)"><g><path d="M 8.015625 -11.15625 C 8.015625 -8.945312 8.375 -7.28125 9.09375 -6.15625 C 9.8125 -5.03125 10.988281 -4.46875 12.625 -4.46875 C 14.238281 -4.46875 15.398438 -5.023438 16.109375 -6.140625 C 16.816406 -7.265625 17.171875 -8.9375 17.171875 -11.15625 C 17.171875 -13.351562 16.8125 -15 16.09375 -16.09375 C 15.382812 -17.195312 14.210938 -17.75 12.578125 -17.75 C 10.960938 -17.75 9.796875 -17.203125 9.078125 -16.109375 C 8.367188 -15.015625 8.015625 -13.363281 8.015625 -11.15625 Z M 23.375 -11.15625 C 23.375 -7.53125 22.421875 -4.695312 20.515625 -2.65625 C 18.609375 -0.625 15.953125 0.390625 12.546875 0.390625 C 10.410156 0.390625 8.523438 -0.0703125 6.890625 -1 C 5.265625 -1.9375 4.015625 -3.28125 3.140625 -5.03125 C 2.265625 -6.78125 1.828125 -8.820312 1.828125 -11.15625 C 1.828125 -14.78125 2.773438 -17.597656 4.671875 -19.609375 C 6.566406 -21.628906 9.226562 -22.640625 12.65625 -22.640625 C 14.789062 -22.640625 16.671875 -22.175781 18.296875 -21.25 C 19.929688 -20.320312 21.1875 -18.988281 22.0625 -17.25 C 22.9375 -15.507812 23.375 -13.476562 23.375 -11.15625 Z M 23.375 -11.15625 "/></g></g></g><g fill="#ffffff" fill-opacity="1"><g transform="translate(254.769872, 52.156198)"><g/></g></g><g fill="#ffffff" fill-opacity="1"><g transform="translate(265.341735, 52.156198)"><g><path d="M 27.765625 -14.8125 C 27.765625 -10.019531 26.398438 -6.351562 23.671875 -3.8125 C 20.953125 -1.269531 17.023438 0 11.890625 0 L 3.65625 0 L 3.65625 -29.0625 L 12.78125 -29.0625 C 17.519531 -29.0625 21.203125 -27.804688 23.828125 -25.296875 C 26.453125 -22.796875 27.765625 -19.300781 27.765625 -14.8125 Z M 21.359375 -14.640625 C 21.359375 -20.890625 18.601562 -24.015625 13.09375 -24.015625 L 9.8125 -24.015625 L 9.8125 -5.09375 L 12.46875 -5.09375 C 18.394531 -5.09375 21.359375 -8.273438 21.359375 -14.640625 Z M 21.359375 -14.640625 "/></g></g></g><g fill="#ffffff" fill-opacity="1"><g transform="translate(295.467482, 52.156198)"><g><path d="M 12.375 -18.328125 C 11.09375 -18.328125 10.085938 -17.914062 9.359375 -17.09375 C 8.628906 -16.28125 8.210938 -15.128906 8.109375 -13.640625 L 16.609375 -13.640625 C 16.585938 -15.128906 16.195312 -16.28125 15.4375 -17.09375 C 14.6875 -17.914062 13.664062 -18.328125 12.375 -18.328125 Z M 13.234375 0.390625 C 9.660156 0.390625 6.863281 -0.59375 4.84375 -2.5625 C 2.832031 -4.539062 1.828125 -7.335938 1.828125 -10.953125 C 1.828125 -14.671875 2.753906 -17.546875 4.609375 -19.578125 C 6.472656 -21.617188 9.050781 -22.640625 12.34375 -22.640625 C 15.476562 -22.640625 17.921875 -21.742188 19.671875 -19.953125 C 21.421875 -18.160156 22.296875 -15.691406 22.296875 -12.546875 L 22.296875 -9.59375 L 7.96875 -9.59375 C 8.03125 -7.875 8.539062 -6.53125 9.5 -5.5625 C 10.457031 -4.59375 11.796875 -4.109375 13.515625 -4.109375 C 14.847656 -4.109375 16.109375 -4.25 17.296875 -4.53125 C 18.492188 -4.8125 19.742188 -5.253906 21.046875 -5.859375 L 21.046875 -1.171875 C 19.984375 -0.640625 18.847656 -0.25 17.640625 0 C 16.441406 0.257812 14.972656 0.390625 13.234375 0.390625 Z M 13.234375 0.390625 "/></g></g></g><g fill="#ffffff" fill-opacity="1"><g transform="translate(319.512467, 52.156198)"><g><path d="M 15.390625 0.390625 C 12.773438 0.390625 10.722656 -0.550781 9.234375 -2.4375 L 8.921875 -2.4375 C 9.128906 -0.582031 9.234375 0.488281 9.234375 0.78125 L 9.234375 9.78125 L 3.1875 9.78125 L 3.1875 -22.21875 L 8.109375 -22.21875 L 8.96875 -19.34375 L 9.234375 -19.34375 C 10.660156 -21.539062 12.765625 -22.640625 15.546875 -22.640625 C 18.171875 -22.640625 20.222656 -21.625 21.703125 -19.59375 C 23.179688 -17.570312 23.921875 -14.757812 23.921875 -11.15625 C 23.921875 -8.78125 23.570312 -6.71875 22.875 -4.96875 C 22.1875 -3.21875 21.195312 -1.882812 19.90625 -0.96875 C 18.625 -0.0625 17.117188 0.390625 15.390625 0.390625 Z M 13.59375 -17.78125 C 12.09375 -17.78125 11 -17.320312 10.3125 -16.40625 C 9.625 -15.488281 9.265625 -13.96875 9.234375 -11.84375 L 9.234375 -11.1875 C 9.234375 -8.800781 9.585938 -7.09375 10.296875 -6.0625 C 11.015625 -5.03125 12.140625 -4.515625 13.671875 -4.515625 C 16.390625 -4.515625 17.75 -6.753906 17.75 -11.234375 C 17.75 -13.421875 17.410156 -15.054688 16.734375 -16.140625 C 16.066406 -17.234375 15.019531 -17.78125 13.59375 -17.78125 Z M 13.59375 -17.78125 "/></g></g></g><g fill="#ffffff" fill-opacity="1"><g transform="translate(345.266423, 52.156198)"><g><path d="M 17.296875 0 L 16.125 -3.015625 L 15.953125 -3.015625 C 14.929688 -1.734375 13.878906 -0.84375 12.796875 -0.34375 C 11.722656 0.144531 10.316406 0.390625 8.578125 0.390625 C 6.453125 0.390625 4.773438 -0.21875 3.546875 -1.4375 C 2.316406 -2.65625 1.703125 -4.390625 1.703125 -6.640625 C 1.703125 -8.992188 2.523438 -10.726562 4.171875 -11.84375 C 5.828125 -12.96875 8.316406 -13.59375 11.640625 -13.71875 L 15.5 -13.828125 L 15.5 -14.8125 C 15.5 -17.0625 14.347656 -18.1875 12.046875 -18.1875 C 10.265625 -18.1875 8.175781 -17.648438 5.78125 -16.578125 L 3.78125 -20.671875 C 6.332031 -22.003906 9.164062 -22.671875 12.28125 -22.671875 C 15.257812 -22.671875 17.546875 -22.019531 19.140625 -20.71875 C 20.734375 -19.425781 21.53125 -17.457031 21.53125 -14.8125 L 21.53125 0 Z M 15.5 -10.296875 L 13.15625 -10.21875 C 11.394531 -10.164062 10.082031 -9.847656 9.21875 -9.265625 C 8.363281 -8.679688 7.9375 -7.789062 7.9375 -6.59375 C 7.9375 -4.882812 8.914062 -4.03125 10.875 -4.03125 C 12.28125 -4.03125 13.398438 -4.429688 14.234375 -5.234375 C 15.078125 -6.046875 15.5 -7.125 15.5 -8.46875 Z M 15.5 -10.296875 "/></g></g></g><g fill="#ffffff" fill-opacity="1"><g transform="translate(369.847943, 52.156198)"><g><path d="M 15.578125 -22.640625 C 16.398438 -22.640625 17.082031 -22.578125 17.625 -22.453125 L 17.171875 -16.78125 C 16.679688 -16.90625 16.085938 -16.96875 15.390625 -16.96875 C 13.453125 -16.96875 11.941406 -16.46875 10.859375 -15.46875 C 9.773438 -14.476562 9.234375 -13.09375 9.234375 -11.3125 L 9.234375 0 L 3.1875 0 L 3.1875 -22.21875 L 7.765625 -22.21875 L 8.671875 -18.484375 L 8.96875 -18.484375 C 9.65625 -19.734375 10.582031 -20.738281 11.75 -21.5 C 12.925781 -22.257812 14.203125 -22.640625 15.578125 -22.640625 Z M 15.578125 -22.640625 "/></g></g></g><g fill="#ffffff" fill-opacity="1"><g transform="translate(388.32878, 52.156198)"><g><path d="M 12.546875 -4.4375 C 13.597656 -4.4375 14.867188 -4.664062 16.359375 -5.125 L 16.359375 -0.609375 C 14.847656 0.0546875 12.992188 0.390625 10.796875 0.390625 C 8.367188 0.390625 6.597656 -0.21875 5.484375 -1.4375 C 4.378906 -2.664062 3.828125 -4.503906 3.828125 -6.953125 L 3.828125 -17.671875 L 0.9375 -17.671875 L 0.9375 -20.234375 L 4.265625 -22.265625 L 6.015625 -26.953125 L 9.890625 -26.953125 L 9.890625 -22.21875 L 16.125 -22.21875 L 16.125 -17.671875 L 9.890625 -17.671875 L 9.890625 -6.953125 C 9.890625 -6.097656 10.128906 -5.460938 10.609375 -5.046875 C 11.097656 -4.640625 11.742188 -4.4375 12.546875 -4.4375 Z M 12.546875 -4.4375 "/></g></g></g><g fill="#ffffff" fill-opacity="1"><g transform="translate(405.994886, 52.156198)"><g><path d="M 17.296875 0 L 16.125 -3.015625 L 15.953125 -3.015625 C 14.929688 -1.734375 13.878906 -0.84375 12.796875 -0.34375 C 11.722656 0.144531 10.316406 0.390625 8.578125 0.390625 C 6.453125 0.390625 4.773438 -0.21875 3.546875 -1.4375 C 2.316406 -2.65625 1.703125 -4.390625 1.703125 -6.640625 C 1.703125 -8.992188 2.523438 -10.726562 4.171875 -11.84375 C 5.828125 -12.96875 8.316406 -13.59375 11.640625 -13.71875 L 15.5 -13.828125 L 15.5 -14.8125 C 15.5 -17.0625 14.347656 -18.1875 12.046875 -18.1875 C 10.265625 -18.1875 8.175781 -17.648438 5.78125 -16.578125 L 3.78125 -20.671875 C 6.332031 -22.003906 9.164062 -22.671875 12.28125 -22.671875 C 15.257812 -22.671875 17.546875 -22.019531 19.140625 -20.71875 C 20.734375 -19.425781 21.53125 -17.457031 21.53125 -14.8125 L 21.53125 0 Z M 15.5 -10.296875 L 13.15625 -10.21875 C 11.394531 -10.164062 10.082031 -9.847656 9.21875 -9.265625 C 8.363281 -8.679688 7.9375 -7.789062 7.9375 -6.59375 C 7.9375 -4.882812 8.914062 -4.03125 10.875 -4.03125 C 12.28125 -4.03125 13.398438 -4.429688 14.234375 -5.234375 C 15.078125 -6.046875 15.5 -7.125 15.5 -8.46875 Z M 15.5 -10.296875 "/></g></g></g><g fill="#ffffff" fill-opacity="1"><g transform="translate(430.57643, 52.156198)"><g><path d="M 23.078125 0 L 17.015625 0 L 17.015625 -12.984375 C 17.015625 -14.585938 16.742188 -15.785156 16.203125 -16.578125 C 15.671875 -17.378906 14.828125 -17.78125 13.671875 -17.78125 C 12.117188 -17.78125 10.988281 -17.210938 10.28125 -16.078125 C 9.582031 -14.941406 9.234375 -13.066406 9.234375 -10.453125 L 9.234375 0 L 3.1875 0 L 3.1875 -22.21875 L 7.8125 -22.21875 L 8.625 -19.375 L 8.96875 -19.375 C 9.5625 -20.394531 10.421875 -21.191406 11.546875 -21.765625 C 12.671875 -22.347656 13.960938 -22.640625 15.421875 -22.640625 C 18.742188 -22.640625 21 -21.550781 22.1875 -19.375 L 22.71875 -19.375 C 23.3125 -20.40625 24.1875 -21.207031 25.34375 -21.78125 C 26.507812 -22.351562 27.820312 -22.640625 29.28125 -22.640625 C 31.789062 -22.640625 33.691406 -21.992188 34.984375 -20.703125 C 36.273438 -19.410156 36.921875 -17.335938 36.921875 -14.484375 L 36.921875 0 L 30.84375 0 L 30.84375 -12.984375 C 30.84375 -14.585938 30.570312 -15.785156 30.03125 -16.578125 C 29.5 -17.378906 28.65625 -17.78125 27.5 -17.78125 C 26.019531 -17.78125 24.910156 -17.25 24.171875 -16.1875 C 23.441406 -15.132812 23.078125 -13.457031 23.078125 -11.15625 Z M 23.078125 0 "/></g></g></g><g fill="#ffffff" fill-opacity="1"><g transform="translate(470.538752, 52.156198)"><g><path d="M 12.375 -18.328125 C 11.09375 -18.328125 10.085938 -17.914062 9.359375 -17.09375 C 8.628906 -16.28125 8.210938 -15.128906 8.109375 -13.640625 L 16.609375 -13.640625 C 16.585938 -15.128906 16.195312 -16.28125 15.4375 -17.09375 C 14.6875 -17.914062 13.664062 -18.328125 12.375 -18.328125 Z M 13.234375 0.390625 C 9.660156 0.390625 6.863281 -0.59375 4.84375 -2.5625 C 2.832031 -4.539062 1.828125 -7.335938 1.828125 -10.953125 C 1.828125 -14.671875 2.753906 -17.546875 4.609375 -19.578125 C 6.472656 -21.617188 9.050781 -22.640625 12.34375 -22.640625 C 15.476562 -22.640625 17.921875 -21.742188 19.671875 -19.953125 C 21.421875 -18.160156 22.296875 -15.691406 22.296875 -12.546875 L 22.296875 -9.59375 L 7.96875 -9.59375 C 8.03125 -7.875 8.539062 -6.53125 9.5 -5.5625 C 10.457031 -4.59375 11.796875 -4.109375 13.515625 -4.109375 C 14.847656 -4.109375 16.109375 -4.25 17.296875 -4.53125 C 18.492188 -4.8125 19.742188 -5.253906 21.046875 -5.859375 L 21.046875 -1.171875 C 19.984375 -0.640625 18.847656 -0.25 17.640625 0 C 16.441406 0.257812 14.972656 0.390625 13.234375 0.390625 Z M 13.234375 0.390625 "/></g></g></g><g fill="#ffffff" fill-opacity="1"><g transform="translate(494.583737, 52.156198)"><g><path d="M 23.6875 0 L 17.625 0 L 17.625 -12.984375 C 17.625 -14.585938 17.335938 -15.785156 16.765625 -16.578125 C 16.203125 -17.378906 15.296875 -17.78125 14.046875 -17.78125 C 12.347656 -17.78125 11.117188 -17.210938 10.359375 -16.078125 C 9.609375 -14.953125 9.234375 -13.078125 9.234375 -10.453125 L 9.234375 0 L 3.1875 0 L 3.1875 -22.21875 L 7.8125 -22.21875 L 8.625 -19.375 L 8.96875 -19.375 C 9.644531 -20.445312 10.570312 -21.257812 11.75 -21.8125 C 12.9375 -22.363281 14.285156 -22.640625 15.796875 -22.640625 C 18.378906 -22.640625 20.335938 -21.9375 21.671875 -20.53125 C 23.015625 -19.132812 23.6875 -17.117188 23.6875 -14.484375 Z M 23.6875 0 "/></g></g></g><g fill="#ffffff" fill-opacity="1"><g transform="translate(521.331298, 52.156198)"><g><path d="M 12.546875 -4.4375 C 13.597656 -4.4375 14.867188 -4.664062 16.359375 -5.125 L 16.359375 -0.609375 C 14.847656 0.0546875 12.992188 0.390625 10.796875 0.390625 C 8.367188 0.390625 6.597656 -0.21875 5.484375 -1.4375 C 4.378906 -2.664062 3.828125 -4.503906 3.828125 -6.953125 L 3.828125 -17.671875 L 0.9375 -17.671875 L 0.9375 -20.234375 L 4.265625 -22.265625 L 6.015625 -26.953125 L 9.890625 -26.953125 L 9.890625 -22.21875 L 16.125 -22.21875 L 16.125 -17.671875 L 9.890625 -17.671875 L 9.890625 -6.953125 C 9.890625 -6.097656 10.128906 -5.460938 10.609375 -5.046875 C 11.097656 -4.640625 11.742188 -4.4375 12.546875 -4.4375 Z M 12.546875 -4.4375 "/></g></g></g><g fill="#ffffff" fill-opacity="1"><g transform="translate(538.997405, 52.156198)"><g><path d="M 17.296875 0 L 16.125 -3.015625 L 15.953125 -3.015625 C 14.929688 -1.734375 13.878906 -0.84375 12.796875 -0.34375 C 11.722656 0.144531 10.316406 0.390625 8.578125 0.390625 C 6.453125 0.390625 4.773438 -0.21875 3.546875 -1.4375 C 2.316406 -2.65625 1.703125 -4.390625 1.703125 -6.640625 C 1.703125 -8.992188 2.523438 -10.726562 4.171875 -11.84375 C 5.828125 -12.96875 8.316406 -13.59375 11.640625 -13.71875 L 15.5 -13.828125 L 15.5 -14.8125 C 15.5 -17.0625 14.347656 -18.1875 12.046875 -18.1875 C 10.265625 -18.1875 8.175781 -17.648438 5.78125 -16.578125 L 3.78125 -20.671875 C 6.332031 -22.003906 9.164062 -22.671875 12.28125 -22.671875 C 15.257812 -22.671875 17.546875 -22.019531 19.140625 -20.71875 C 20.734375 -19.425781 21.53125 -17.457031 21.53125 -14.8125 L 21.53125 0 Z M 15.5 -10.296875 L 13.15625 -10.21875 C 11.394531 -10.164062 10.082031 -9.847656 9.21875 -9.265625 C 8.363281 -8.679688 7.9375 -7.789062 7.9375 -6.59375 C 7.9375 -4.882812 8.914062 -4.03125 10.875 -4.03125 C 12.28125 -4.03125 13.398438 -4.429688 14.234375 -5.234375 C 15.078125 -6.046875 15.5 -7.125 15.5 -8.46875 Z M 15.5 -10.296875 "/></g></g></g><g fill="#ffffff" fill-opacity="1"><g transform="translate(563.578948, 52.156198)"><g><path d="M 9.234375 0 L 3.1875 0 L 3.1875 -30.921875 L 9.234375 -30.921875 Z M 9.234375 0 "/></g></g></g><g fill="#ffffff" fill-opacity="1"><g transform="translate(586.570696, 52.156198)"><g><path d="M 27.765625 -14.8125 C 27.765625 -10.019531 26.398438 -6.351562 23.671875 -3.8125 C 20.953125 -1.269531 17.023438 0 11.890625 0 L 3.65625 0 L 3.65625 -29.0625 L 12.78125 -29.0625 C 17.519531 -29.0625 21.203125 -27.804688 23.828125 -25.296875 C 26.453125 -22.796875 27.765625 -19.300781 27.765625 -14.8125 Z M 21.359375 -14.640625 C 21.359375 -20.890625 18.601562 -24.015625 13.09375 -24.015625 L 9.8125 -24.015625 L 9.8125 -5.09375 L 12.46875 -5.09375 C 18.394531 -5.09375 21.359375 -8.273438 21.359375 -14.640625 Z M 21.359375 -14.640625 "/></g></g></g><g fill="#ffffff" fill-opacity="1"><g transform="translate(616.696443, 52.156198)"><g><path d="M 12.375 -18.328125 C 11.09375 -18.328125 10.085938 -17.914062 9.359375 -17.09375 C 8.628906 -16.28125 8.210938 -15.128906 8.109375 -13.640625 L 16.609375 -13.640625 C 16.585938 -15.128906 16.195312 -16.28125 15.4375 -17.09375 C 14.6875 -17.914062 13.664062 -18.328125 12.375 -18.328125 Z M 13.234375 0.390625 C 9.660156 0.390625 6.863281 -0.59375 4.84375 -2.5625 C 2.832031 -4.539062 1.828125 -7.335938 1.828125 -10.953125 C 1.828125 -14.671875 2.753906 -17.546875 4.609375 -19.578125 C 6.472656 -21.617188 9.050781 -22.640625 12.34375 -22.640625 C 15.476562 -22.640625 17.921875 -21.742188 19.671875 -19.953125 C 21.421875 -18.160156 22.296875 -15.691406 22.296875 -12.546875 L 22.296875 -9.59375 L 7.96875 -9.59375 C 8.03125 -7.875 8.539062 -6.53125 9.5 -5.5625 C 10.457031 -4.59375 11.796875 -4.109375 13.515625 -4.109375 C 14.847656 -4.109375 16.109375 -4.25 17.296875 -4.53125 C 18.492188 -4.8125 19.742188 -5.253906 21.046875 -5.859375 L 21.046875 -1.171875 C 19.984375 -0.640625 18.847656 -0.25 17.640625 0 C 16.441406 0.257812 14.972656 0.390625 13.234375 0.390625 Z M 13.234375 0.390625 "/></g></g></g><g fill="#ffffff" fill-opacity="1"><g transform="translate(640.741428, 52.156198)"><g/></g></g><g fill="#ffffff" fill-opacity="1"><g transform="translate(651.313291, 52.156198)"><g><path d="M 0.609375 8.546875 C -0.773438 8.546875 -1.984375 8.398438 -3.015625 8.109375 L -3.015625 2.984375 C -1.960938 3.242188 -1 3.375 -0.125 3.375 C 1.226562 3.375 2.195312 2.953125 2.78125 2.109375 C 3.363281 1.273438 3.65625 -0.0351562 3.65625 -1.828125 L 3.65625 -29.0625 L 9.8125 -29.0625 L 9.8125 -1.875 C 9.8125 1.519531 9.035156 4.101562 7.484375 5.875 C 5.941406 7.65625 3.648438 8.546875 0.609375 8.546875 Z M 0.609375 8.546875 "/></g></g></g><g fill="#ffffff" fill-opacity="1"><g transform="translate(664.786413, 52.156198)"><g><path d="M 8.015625 -11.15625 C 8.015625 -8.945312 8.375 -7.28125 9.09375 -6.15625 C 9.8125 -5.03125 10.988281 -4.46875 12.625 -4.46875 C 14.238281 -4.46875 15.398438 -5.023438 16.109375 -6.140625 C 16.816406 -7.265625 17.171875 -8.9375 17.171875 -11.15625 C 17.171875 -13.351562 16.8125 -15 16.09375 -16.09375 C 15.382812 -17.195312 14.210938 -17.75 12.578125 -17.75 C 10.960938 -17.75 9.796875 -17.203125 9.078125 -16.109375 C 8.367188 -15.015625 8.015625 -13.363281 8.015625 -11.15625 Z M 23.375 -11.15625 C 23.375 -7.53125 22.421875 -4.695312 20.515625 -2.65625 C 18.609375 -0.625 15.953125 0.390625 12.546875 0.390625 C 10.410156 0.390625 8.523438 -0.0703125 6.890625 -1 C 5.265625 -1.9375 4.015625 -3.28125 3.140625 -5.03125 C 2.265625 -6.78125 1.828125 -8.820312 1.828125 -11.15625 C 1.828125 -14.78125 2.773438 -17.597656 4.671875 -19.609375 C 6.566406 -21.628906 9.226562 -22.640625 12.65625 -22.640625 C 14.789062 -22.640625 16.671875 -22.175781 18.296875 -21.25 C 19.929688 -20.320312 21.1875 -18.988281 22.0625 -17.25 C 22.9375 -15.507812 23.375 -13.476562 23.375 -11.15625 Z M 23.375 -11.15625 "/></g></g></g><g fill="#ffffff" fill-opacity="1"><g transform="translate(689.983979, 52.156198)"><g><path d="M 8.46875 0 L 0 -22.21875 L 6.34375 -22.21875 L 10.640625 -9.5625 C 11.109375 -7.957031 11.40625 -6.441406 11.53125 -5.015625 L 11.640625 -5.015625 C 11.710938 -6.285156 12.015625 -7.800781 12.546875 -9.5625 L 16.8125 -22.21875 L 23.15625 -22.21875 L 14.6875 0 Z M 8.46875 0 "/></g></g></g><g fill="#ffffff" fill-opacity="1"><g transform="translate(713.134702, 52.156198)"><g><path d="M 12.375 -18.328125 C 11.09375 -18.328125 10.085938 -17.914062 9.359375 -17.09375 C 8.628906 -16.28125 8.210938 -15.128906 8.109375 -13.640625 L 16.609375 -13.640625 C 16.585938 -15.128906 16.195312 -16.28125 15.4375 -17.09375 C 14.6875 -17.914062 13.664062 -18.328125 12.375 -18.328125 Z M 13.234375 0.390625 C 9.660156 0.390625 6.863281 -0.59375 4.84375 -2.5625 C 2.832031 -4.539062 1.828125 -7.335938 1.828125 -10.953125 C 1.828125 -14.671875 2.753906 -17.546875 4.609375 -19.578125 C 6.472656 -21.617188 9.050781 -22.640625 12.34375 -22.640625 C 15.476562 -22.640625 17.921875 -21.742188 19.671875 -19.953125 C 21.421875 -18.160156 22.296875 -15.691406 22.296875 -12.546875 L 22.296875 -9.59375 L 7.96875 -9.59375 C 8.03125 -7.875 8.539062 -6.53125 9.5 -5.5625 C 10.457031 -4.59375 11.796875 -4.109375 13.515625 -4.109375 C 14.847656 -4.109375 16.109375 -4.25 17.296875 -4.53125 C 18.492188 -4.8125 19.742188 -5.253906 21.046875 -5.859375 L 21.046875 -1.171875 C 19.984375 -0.640625 18.847656 -0.25 17.640625 0 C 16.441406 0.257812 14.972656 0.390625 13.234375 0.390625 Z M 13.234375 0.390625 "/></g></g></g><g fill="#ffffff" fill-opacity="1"><g transform="translate(737.179688, 52.156198)"><g><path d="M 23.6875 0 L 17.625 0 L 17.625 -12.984375 C 17.625 -14.585938 17.335938 -15.785156 16.765625 -16.578125 C 16.203125 -17.378906 15.296875 -17.78125 14.046875 -17.78125 C 12.347656 -17.78125 11.117188 -17.210938 10.359375 -16.078125 C 9.609375 -14.953125 9.234375 -13.078125 9.234375 -10.453125 L 9.234375 0 L 3.1875 0 L 3.1875 -22.21875 L 7.8125 -22.21875 L 8.625 -19.375 L 8.96875 -19.375 C 9.644531 -20.445312 10.570312 -21.257812 11.75 -21.8125 C 12.9375 -22.363281 14.285156 -22.640625 15.796875 -22.640625 C 18.378906 -22.640625 20.335938 -21.9375 21.671875 -20.53125 C 23.015625 -19.132812 23.6875 -17.117188 23.6875 -14.484375 Z M 23.6875 0 "/></g></g></g><g fill="#ffffff" fill-opacity="1"><g transform="translate(763.927249, 52.156198)"><g><path d="M 12.375 -18.328125 C 11.09375 -18.328125 10.085938 -17.914062 9.359375 -17.09375 C 8.628906 -16.28125 8.210938 -15.128906 8.109375 -13.640625 L 16.609375 -13.640625 C 16.585938 -15.128906 16.195312 -16.28125 15.4375 -17.09375 C 14.6875 -17.914062 13.664062 -18.328125 12.375 -18.328125 Z M 13.234375 0.390625 C 9.660156 0.390625 6.863281 -0.59375 4.84375 -2.5625 C 2.832031 -4.539062 1.828125 -7.335938 1.828125 -10.953125 C 1.828125 -14.671875 2.753906 -17.546875 4.609375 -19.578125 C 6.472656 -21.617188 9.050781 -22.640625 12.34375 -22.640625 C 15.476562 -22.640625 17.921875 -21.742188 19.671875 -19.953125 C 21.421875 -18.160156 22.296875 -15.691406 22.296875 -12.546875 L 22.296875 -9.59375 L 7.96875 -9.59375 C 8.03125 -7.875 8.539062 -6.53125 9.5 -5.5625 C 10.457031 -4.59375 11.796875 -4.109375 13.515625 -4.109375 C 14.847656 -4.109375 16.109375 -4.25 17.296875 -4.53125 C 18.492188 -4.8125 19.742188 -5.253906 21.046875 -5.859375 L 21.046875 -1.171875 C 19.984375 -0.640625 18.847656 -0.25 17.640625 0 C 16.441406 0.257812 14.972656 0.390625 13.234375 0.390625 Z M 13.234375 0.390625 "/></g></g></g><g fill="#ffffff" fill-opacity="1"><g transform="translate(787.972189, 52.156198)"><g><path d="M 18.6875 -6.59375 C 18.6875 -4.320312 17.894531 -2.585938 16.3125 -1.390625 C 14.726562 -0.203125 12.359375 0.390625 9.203125 0.390625 C 7.585938 0.390625 6.207031 0.28125 5.0625 0.0625 C 3.925781 -0.15625 2.863281 -0.472656 1.875 -0.890625 L 1.875 -5.90625 C 3 -5.375 4.265625 -4.925781 5.671875 -4.5625 C 7.085938 -4.207031 8.332031 -4.03125 9.40625 -4.03125 C 11.601562 -4.03125 12.703125 -4.664062 12.703125 -5.9375 C 12.703125 -6.414062 12.554688 -6.800781 12.265625 -7.09375 C 11.972656 -7.394531 11.46875 -7.734375 10.75 -8.109375 C 10.03125 -8.492188 9.078125 -8.9375 7.890625 -9.4375 C 6.179688 -10.15625 4.925781 -10.816406 4.125 -11.421875 C 3.320312 -12.035156 2.738281 -12.734375 2.375 -13.515625 C 2.007812 -14.304688 1.828125 -15.28125 1.828125 -16.4375 C 1.828125 -18.40625 2.59375 -19.929688 4.125 -21.015625 C 5.65625 -22.097656 7.828125 -22.640625 10.640625 -22.640625 C 13.304688 -22.640625 15.90625 -22.054688 18.4375 -20.890625 L 16.609375 -16.515625 C 15.503906 -16.992188 14.46875 -17.382812 13.5 -17.6875 C 12.53125 -17.988281 11.539062 -18.140625 10.53125 -18.140625 C 8.738281 -18.140625 7.84375 -17.65625 7.84375 -16.6875 C 7.84375 -16.144531 8.128906 -15.675781 8.703125 -15.28125 C 9.285156 -14.882812 10.550781 -14.296875 12.5 -13.515625 C 14.238281 -12.816406 15.507812 -12.160156 16.3125 -11.546875 C 17.125 -10.941406 17.722656 -10.238281 18.109375 -9.4375 C 18.492188 -8.644531 18.6875 -7.695312 18.6875 -6.59375 Z M 18.6875 -6.59375 "/></g></g></g><g fill="#ffffff" fill-opacity="1"><g transform="translate(808.201773, 52.156198)"><g/></g></g><g fill="#ffffff" fill-opacity="1"><g transform="translate(818.77359, 52.156198)"><g><path d="M 30.03125 -14.5625 C 30.03125 -9.757812 28.835938 -6.066406 26.453125 -3.484375 C 24.066406 -0.898438 20.648438 0.390625 16.203125 0.390625 C 11.742188 0.390625 8.320312 -0.898438 5.9375 -3.484375 C 3.550781 -6.066406 2.359375 -9.773438 2.359375 -14.609375 C 2.359375 -19.441406 3.554688 -23.132812 5.953125 -25.6875 C 8.347656 -28.238281 11.773438 -29.515625 16.234375 -29.515625 C 20.703125 -29.515625 24.117188 -28.226562 26.484375 -25.65625 C 28.847656 -23.082031 30.03125 -19.382812 30.03125 -14.5625 Z M 8.828125 -14.5625 C 8.828125 -11.320312 9.441406 -8.878906 10.671875 -7.234375 C 11.898438 -5.585938 13.742188 -4.765625 16.203125 -4.765625 C 21.117188 -4.765625 23.578125 -8.03125 23.578125 -14.5625 C 23.578125 -21.113281 21.128906 -24.390625 16.234375 -24.390625 C 13.785156 -24.390625 11.9375 -23.5625 10.6875 -21.90625 C 9.445312 -20.257812 8.828125 -17.8125 8.828125 -14.5625 Z M 8.828125 -14.5625 "/></g></g></g><g fill="#ffffff" fill-opacity="1"><g transform="translate(851.164743, 52.156198)"><g><path d="M 15.578125 -22.640625 C 16.398438 -22.640625 17.082031 -22.578125 17.625 -22.453125 L 17.171875 -16.78125 C 16.679688 -16.90625 16.085938 -16.96875 15.390625 -16.96875 C 13.453125 -16.96875 11.941406 -16.46875 10.859375 -15.46875 C 9.773438 -14.476562 9.234375 -13.09375 9.234375 -11.3125 L 9.234375 0 L 3.1875 0 L 3.1875 -22.21875 L 7.765625 -22.21875 L 8.671875 -18.484375 L 8.96875 -18.484375 C 9.65625 -19.734375 10.582031 -20.738281 11.75 -21.5 C 12.925781 -22.257812 14.203125 -22.640625 15.578125 -22.640625 Z M 15.578125 -22.640625 "/></g></g></g><g fill="#ffffff" fill-opacity="1"><g transform="translate(869.645602, 52.156198)"><g><path d="M 18.921875 0 L 18.109375 -2.84375 L 17.78125 -2.84375 C 17.132812 -1.8125 16.210938 -1.015625 15.015625 -0.453125 C 13.828125 0.109375 12.472656 0.390625 10.953125 0.390625 C 8.335938 0.390625 6.367188 -0.304688 5.046875 -1.703125 C 3.722656 -3.097656 3.0625 -5.109375 3.0625 -7.734375 L 3.0625 -22.21875 L 9.125 -22.21875 L 9.125 -9.234375 C 9.125 -7.640625 9.40625 -6.441406 9.96875 -5.640625 C 10.539062 -4.835938 11.453125 -4.4375 12.703125 -4.4375 C 14.398438 -4.4375 15.625 -5 16.375 -6.125 C 17.132812 -7.257812 17.515625 -9.140625 17.515625 -11.765625 L 17.515625 -22.21875 L 23.578125 -22.21875 L 23.578125 0 Z M 18.921875 0 "/></g></g></g><g fill="#ffffff" fill-opacity="1"><g transform="translate(896.393164, 52.156198)"><g><path d="M 15.578125 -22.640625 C 16.398438 -22.640625 17.082031 -22.578125 17.625 -22.453125 L 17.171875 -16.78125 C 16.679688 -16.90625 16.085938 -16.96875 15.390625 -16.96875 C 13.453125 -16.96875 11.941406 -16.46875 10.859375 -15.46875 C 9.773438 -14.476562 9.234375 -13.09375 9.234375 -11.3125 L 9.234375 0 L 3.1875 0 L 3.1875 -22.21875 L 7.765625 -22.21875 L 8.671875 -18.484375 L 8.96875 -18.484375 C 9.65625 -19.734375 10.582031 -20.738281 11.75 -21.5 C 12.925781 -22.257812 14.203125 -22.640625 15.578125 -22.640625 Z M 15.578125 -22.640625 "/></g></g></g><g fill="#ffffff" fill-opacity="1"><g transform="translate(914.874023, 52.156198)"><g><path d="M 8.015625 -11.15625 C 8.015625 -8.945312 8.375 -7.28125 9.09375 -6.15625 C 9.8125 -5.03125 10.988281 -4.46875 12.625 -4.46875 C 14.238281 -4.46875 15.398438 -5.023438 16.109375 -6.140625 C 16.816406 -7.265625 17.171875 -8.9375 17.171875 -11.15625 C 17.171875 -13.351562 16.8125 -15 16.09375 -16.09375 C 15.382812 -17.195312 14.210938 -17.75 12.578125 -17.75 C 10.960938 -17.75 9.796875 -17.203125 9.078125 -16.109375 C 8.367188 -15.015625 8.015625 -13.363281 8.015625 -11.15625 Z M 23.375 -11.15625 C 23.375 -7.53125 22.421875 -4.695312 20.515625 -2.65625 C 18.609375 -0.625 15.953125 0.390625 12.546875 0.390625 C 10.410156 0.390625 8.523438 -0.0703125 6.890625 -1 C 5.265625 -1.9375 4.015625 -3.28125 3.140625 -5.03125 C 2.265625 -6.78125 1.828125 -8.820312 1.828125 -11.15625 C 1.828125 -14.78125 2.773438 -17.597656 4.671875 -19.609375 C 6.566406 -21.628906 9.226562 -22.640625 12.65625 -22.640625 C 14.789062 -22.640625 16.671875 -22.175781 18.296875 -21.25 C 19.929688 -20.320312 21.1875 -18.988281 22.0625 -17.25 C 22.9375 -15.507812 23.375 -13.476562 23.375 -11.15625 Z M 23.375 -11.15625 "/></g></g></g></g></g></svg>